Coordinates
version=1
nRows=10
nColumns=22
inDegrees=yes

Units are S.I. units (second, meters, Newtons, ...)
If the header above contains a line with 'inDegrees', this indicates whether rotational values are in degrees (yes) or radians (no).

endheader
time	pelvis_tilt	pelvis_list	pelvis_rotation	pelvis_tx	pelvis_ty	pelvis_tz	hip_flexion_r	hip_adduction_r	hip_rotation_r	knee_angle_r	ankle_angle_r	subtalar_angle_r	hip_flexion_l	hip_adduction_l	hip_rotation_l	knee_angle_l	ankle_angle_l	subtalar_angle_l	lumbar_extension	lumbar_bending	lumbar_rotation
      1.51000000	      9.41562362	     -1.41344893	     79.47787070	      0.98785695	      0.91791442	      0.32985451	     -4.02129330	      7.88773367	     -7.31610280	    -10.82686845	     12.81947877	      5.24476617	     32.45406259	     -4.13938452	      0.59921804	    -53.21969460	      4.51725640	     -9.68563248	    -10.55433591	      6.77443018	      3.36091856
      1.52000000	      9.36968581	     -1.44821021	     79.81866695	      0.98934670	      0.91687896	      0.32080641	     -5.11237348	      7.94475442	     -7.51919836	     -9.89025988	     12.99331922	      5.33566906	     32.82252931	     -4.20372421	      0.21745262	    -49.98717148	      4.73617831	     -9.45993282	    -10.38606601	      6.61733461	      3.78763139
      1.53000000	      9.33486010	     -1.50289055	     80.16395816	      0.99077398	      0.91558829	      0.31164338	     -6.16494142	      8.01611231	     -7.73072664	     -9.00268948	     13.20168783	      5.46625169	     33.12697487	     -4.29611129	     -0.18221576	    -46.63934861	      4.87309428	     -9.23670813	    -10.19123463	      6.46987414	      4.18062069
      1.54000000	      9.31718217	     -1.58465690	     80.51078248	      0.99216146	      0.91402094	      0.30237057	     -7.15815679	      8.10928092	     -7.93624055	     -8.19238536	     13.45232632	      5.62185885	     33.38775013	     -4.43773765	     -0.64027053	    -43.22259994	      4.94120393	     -9.02389749	     -9.96174049	      6.33932100	      4.53603353
      1.55000000	      9.32580019	     -1.69413575	     80.85537714	      0.99354288	      0.91217094	      0.29299087	     -8.08409355	      8.23377437	     -8.11765650	     -7.47628445	     13.75126745	      5.79558650	     33.62040624	     -4.65162000	     -1.20941351	    -39.79427299	      4.98073073	     -8.82839875	     -9.69783504	      6.22710274	      4.85638694
      1.56000000	      9.34796229	     -1.83714783	     81.17627937	      0.99493808	      0.91004567	      0.28349904	     -8.90353978	      8.36745587	     -8.28292042	     -6.91450624	     14.10053479	      5.95124336	     33.83869950	     -4.94338024	     -1.98565905	    -36.40491266	      5.01117905	     -8.69068673	     -9.38889534	      6.11729781	      5.17399330
      1.57000000	      9.39455950	     -1.98212576	     81.46953235	      0.99632032	      0.90770405	      0.27386617	     -9.66244578	      8.51260145	     -8.40918558	     -6.49027328	     14.49898492	      6.10857237	     34.02222186	     -5.31791992	     -3.04526526	    -33.12778108	      5.07663277	     -8.58944942	     -9.07394342	      6.02161134	      5.48574634
      1.58000000	      9.45300828	     -2.11888735	     81.72623055	      0.99767751	      0.90518355	      0.26406076	    -10.36733489	      8.64874904	     -8.49896795	     -6.21230620	     14.94223065	      6.26633477	     34.17204910	     -5.75421072	     -4.46208611	    -30.03714266	      5.19644297	     -8.51290960	     -8.75727788	      5.92639012	      5.80201923
      1.59000000	      9.50488263	     -2.21056253	     81.94232226	      0.99895143	      0.90257436	      0.25404958	    -11.06429496	      8.74494213	     -8.54507841	     -6.06587729	     15.40929311	      6.43766533	     34.25654121	     -6.20857250	     -6.27699162	    -27.20693332	      5.38874276	     -8.42749508	     -8.47949243	      5.81149159	      6.10409229
      1.60000000	      9.55146857	     -2.34829972	     82.08950663	      1.00015103	      0.89977167	      0.24389556	    -11.60776588	      8.80002399	     -8.53953258	     -6.13974731	     15.93871773	      6.58724287	     34.38924104	     -6.67541583	     -8.42230406	    -24.72154099	      5.64516393	     -8.31730868	     -8.13955219	      5.69829126	      6.46546053
